<svg width="194" height="39" viewBox="0 0 194 39" fill="none" xmlns="http://www.w3.org/2000/svg">
<path d="M31.331 30.396C29.339 30.396 27.755 30.06 26.579 29.388C25.427 28.716 24.599 27.696 24.095 26.328C23.591 24.96 23.339 23.244 23.339 21.18C23.339 18.948 23.651 17.124 24.275 15.708C24.923 14.292 25.859 13.248 27.083 12.576C28.307 11.88 29.819 11.532 31.619 11.532C34.283 11.532 36.287 12.204 37.631 13.548C38.999 14.892 39.683 17.016 39.683 19.92L39.467 22.584H28.163C28.187 23.928 28.463 24.936 28.991 25.608C29.519 26.28 30.431 26.616 31.727 26.616C32.471 26.616 33.287 26.604 34.175 26.58C35.063 26.532 35.939 26.484 36.803 26.436C37.691 26.388 38.447 26.34 39.071 26.292L39.179 29.64C38.579 29.736 37.823 29.844 36.911 29.964C35.999 30.084 35.051 30.18 34.067 30.252C33.107 30.348 32.195 30.396 31.331 30.396ZM28.163 19.524H34.895C34.895 17.892 34.631 16.752 34.103 16.104C33.599 15.456 32.771 15.132 31.619 15.132C30.851 15.132 30.215 15.276 29.711 15.564C29.207 15.852 28.823 16.32 28.559 16.968C28.295 17.616 28.163 18.468 28.163 19.524ZM47.5827 30.396C46.7907 30.396 45.9387 30.348 45.0267 30.252C44.1387 30.18 43.2987 30.084 42.5067 29.964C41.7387 29.844 41.0787 29.724 40.5267 29.604L40.6707 26.04C41.2947 26.112 41.9907 26.196 42.7587 26.292C43.5507 26.388 44.3187 26.472 45.0627 26.544C45.8307 26.592 46.4547 26.616 46.9347 26.616C47.6547 26.616 48.2427 26.556 48.6987 26.436C49.1787 26.316 49.5387 26.124 49.7787 25.86C50.0187 25.572 50.1387 25.164 50.1387 24.636C50.1387 24.228 50.0307 23.916 49.8147 23.7C49.6227 23.484 49.2387 23.304 48.6627 23.16C48.1107 22.992 47.2947 22.824 46.2147 22.656C44.8707 22.464 43.7547 22.188 42.8667 21.828C42.0027 21.468 41.3667 20.94 40.9587 20.244C40.5507 19.524 40.3467 18.552 40.3467 17.328C40.3467 15.84 40.6707 14.676 41.3187 13.836C41.9667 12.996 42.8307 12.408 43.9107 12.072C44.9907 11.712 46.1667 11.532 47.4387 11.532C48.2787 11.532 49.1427 11.58 50.0307 11.676C50.9187 11.748 51.7587 11.844 52.5507 11.964C53.3427 12.084 54.0027 12.204 54.5307 12.324L54.3867 15.96C53.7867 15.864 53.0907 15.78 52.2987 15.708C51.5067 15.612 50.7147 15.54 49.9227 15.492C49.1547 15.444 48.5067 15.42 47.9787 15.42C47.4267 15.42 46.9347 15.48 46.5027 15.6C46.0707 15.696 45.7347 15.864 45.4947 16.104C45.2787 16.344 45.1707 16.704 45.1707 17.184C45.1707 17.52 45.2667 17.796 45.4587 18.012C45.6507 18.228 46.0107 18.42 46.5387 18.588C47.0907 18.732 47.8827 18.876 48.9147 19.02C50.4027 19.236 51.5907 19.536 52.4787 19.92C53.3667 20.304 54.0027 20.856 54.3867 21.576C54.7947 22.296 54.9987 23.268 54.9987 24.492C54.9987 25.932 54.7107 27.084 54.1347 27.948C53.5587 28.812 52.7187 29.436 51.6147 29.82C50.5107 30.204 49.1667 30.396 47.5827 30.396ZM56.3527 30V11.928H61.1407V30H56.3527ZM56.3527 9.048V4.944H61.1767V9.048H56.3527ZM71.2977 38.244C69.3777 38.244 67.7697 38.1 66.4737 37.812C65.2017 37.524 64.2417 36.996 63.5937 36.228C62.9457 35.484 62.6217 34.404 62.6217 32.988C62.6217 32.364 62.7057 31.8 62.8737 31.296C63.0657 30.816 63.3537 30.36 63.7377 29.928C64.1457 29.496 64.6497 29.052 65.2497 28.596C64.9137 28.356 64.6377 28.008 64.4217 27.552C64.2297 27.072 64.1337 26.556 64.1337 26.004C64.1337 25.812 64.2177 25.56 64.3857 25.248C64.5537 24.912 64.7577 24.564 64.9977 24.204C65.2377 23.844 65.4657 23.52 65.6817 23.232C65.2017 23.016 64.7457 22.704 64.3137 22.296C63.8817 21.864 63.5217 21.288 63.2337 20.568C62.9697 19.848 62.8377 18.924 62.8377 17.796C62.8377 16.26 63.1257 15.036 63.7017 14.124C64.3017 13.212 65.1657 12.552 66.2937 12.144C67.4217 11.736 68.7897 11.532 70.3977 11.532C71.0217 11.532 71.6937 11.58 72.4137 11.676C73.1337 11.772 73.7097 11.868 74.1417 11.964L80.0097 11.856V15.096L77.2737 15.06C77.4897 15.348 77.6817 15.72 77.8497 16.176C78.0417 16.608 78.1377 17.148 78.1377 17.796C78.1377 19.452 77.8497 20.736 77.2737 21.648C76.7217 22.56 75.8817 23.196 74.7537 23.556C73.6257 23.892 72.1977 24.06 70.4697 24.06C70.2777 24.06 70.0137 24.048 69.6777 24.024C69.3417 23.976 69.0657 23.94 68.8497 23.916C68.7537 24.156 68.6577 24.432 68.5617 24.744C68.4657 25.032 68.4177 25.236 68.4177 25.356C68.4177 25.62 68.4657 25.824 68.5617 25.968C68.6817 26.112 68.8857 26.232 69.1737 26.328C69.4857 26.4 69.9297 26.448 70.5057 26.472C71.1057 26.496 71.8977 26.508 72.8817 26.508C74.5857 26.508 75.9417 26.664 76.9497 26.976C77.9817 27.288 78.7137 27.84 79.1457 28.632C79.5777 29.424 79.7937 30.54 79.7937 31.98C79.7937 34.116 79.0377 35.688 77.5257 36.696C76.0377 37.728 73.9617 38.244 71.2977 38.244ZM71.0457 34.68C72.5337 34.68 73.6017 34.5 74.2497 34.14C74.9217 33.804 75.2577 33.24 75.2577 32.448C75.2577 31.824 75.1377 31.368 74.8977 31.08C74.6817 30.792 74.3097 30.6 73.7817 30.504C73.2537 30.432 72.5337 30.396 71.6217 30.396C71.3817 30.396 71.0937 30.384 70.7577 30.36C70.4217 30.36 70.0737 30.348 69.7137 30.324C69.3777 30.324 69.0657 30.312 68.7777 30.288C68.5137 30.264 68.3217 30.252 68.2017 30.252C67.8657 30.492 67.5897 30.72 67.3737 30.936C67.1817 31.152 67.0377 31.368 66.9417 31.584C66.8697 31.824 66.8337 32.112 66.8337 32.448C66.8337 33 66.9657 33.432 67.2297 33.744C67.4937 34.08 67.9257 34.32 68.5257 34.464C69.1497 34.608 69.9897 34.68 71.0457 34.68ZM70.4337 20.676C71.5377 20.676 72.3177 20.46 72.7737 20.028C73.2537 19.572 73.4937 18.828 73.4937 17.796C73.4937 16.764 73.2537 16.02 72.7737 15.564C72.3177 15.108 71.5377 14.88 70.4337 14.88C69.3777 14.88 68.6097 15.108 68.1297 15.564C67.6737 16.02 67.4457 16.764 67.4457 17.796C67.4457 18.828 67.6737 19.572 68.1297 20.028C68.6097 20.46 69.3777 20.676 70.4337 20.676ZM80.737 30V11.928H85.525V13.08C85.909 12.84 86.377 12.612 86.929 12.396C87.481 12.156 88.057 11.952 88.657 11.784C89.281 11.616 89.881 11.532 90.457 11.532C91.705 11.532 92.737 11.7 93.553 12.036C94.393 12.348 95.053 12.864 95.533 13.584C96.013 14.304 96.361 15.252 96.577 16.428C96.793 17.58 96.901 18.984 96.901 20.64V30H92.077V20.892C92.077 19.644 92.005 18.648 91.861 17.904C91.717 17.136 91.441 16.584 91.033 16.248C90.625 15.912 90.025 15.744 89.233 15.744C88.801 15.744 88.345 15.792 87.865 15.888C87.409 15.96 86.965 16.068 86.533 16.212C86.125 16.356 85.789 16.5 85.525 16.644V30H80.737Z" fill="#0D99DE"/>
<path d="M99.1235 30V5.412H104.091V15.78L107.187 15.708L112.083 5.412H117.267L111.471 17.58L117.663 30H112.335L107.223 20.172L104.091 20.244V30H99.1235ZM118.094 30V11.928H122.882V30H118.094ZM118.094 9.048V4.944H122.918V9.048H118.094ZM131.419 30.432C130.099 30.432 129.031 30.24 128.215 29.856C127.399 29.472 126.811 28.812 126.451 27.876C126.115 26.916 125.947 25.584 125.947 23.88V15.924H123.823V11.928H125.947V7.14H130.735V11.928H135.343V15.924H130.735V22.62C130.735 23.556 130.771 24.288 130.843 24.816C130.939 25.344 131.131 25.716 131.419 25.932C131.707 26.148 132.151 26.256 132.751 26.256C132.919 26.256 133.171 26.244 133.507 26.22C133.843 26.196 134.179 26.172 134.515 26.148C134.851 26.124 135.127 26.1 135.343 26.076L135.487 29.928C135.127 30 134.683 30.072 134.155 30.144C133.651 30.216 133.147 30.276 132.643 30.324C132.163 30.396 131.755 30.432 131.419 30.432ZM136.509 30V5.412H141.477V15.672H151.017V5.412H155.985V30H151.017V19.848H141.477V30H136.509ZM164.192 30.396C162.632 30.396 161.42 30.072 160.556 29.424C159.716 28.752 159.116 27.744 158.756 26.4C158.42 25.056 158.252 23.364 158.252 21.324V11.928H163.04V21.108C163.04 22.38 163.1 23.388 163.22 24.132C163.364 24.876 163.64 25.404 164.048 25.716C164.456 26.028 165.044 26.184 165.812 26.184C166.556 26.184 167.252 26.088 167.9 25.896C168.548 25.704 169.064 25.512 169.448 25.32V11.928H174.236V30H169.484V28.884C168.668 29.34 167.852 29.712 167.036 30C166.244 30.264 165.296 30.396 164.192 30.396ZM183.59 30.396C182.99 30.396 182.258 30.372 181.394 30.324C180.53 30.276 179.642 30.204 178.73 30.108C177.842 30.012 177.05 29.928 176.354 29.856V4.548H181.178V12.504C181.538 12.36 181.982 12.216 182.51 12.072C183.038 11.928 183.59 11.808 184.166 11.712C184.766 11.592 185.318 11.532 185.822 11.532C187.502 11.532 188.834 11.88 189.818 12.576C190.826 13.248 191.546 14.256 191.978 15.6C192.41 16.944 192.626 18.636 192.626 20.676C192.626 23.076 192.35 24.996 191.798 26.436C191.27 27.852 190.346 28.872 189.026 29.496C187.706 30.096 185.894 30.396 183.59 30.396ZM183.626 26.364C184.802 26.364 185.678 26.16 186.254 25.752C186.83 25.32 187.214 24.684 187.406 23.844C187.622 23.004 187.73 21.972 187.73 20.748C187.73 19.5 187.634 18.504 187.442 17.76C187.25 16.992 186.926 16.44 186.47 16.104C186.038 15.744 185.426 15.564 184.634 15.564C184.25 15.564 183.842 15.612 183.41 15.708C182.978 15.78 182.558 15.876 182.15 15.996C181.766 16.092 181.442 16.188 181.178 16.284V26.22C181.538 26.244 181.958 26.28 182.438 26.328C182.918 26.352 183.314 26.364 183.626 26.364Z" fill="#121212"/>
<g clip-path="url(#clip0_2619_266)">
<path d="M2.91535 3C1.30646 3 0 4.31616 0 5.937V16.6881C3.75272 16.6881 6.79357 13.6246 6.79357 9.84403V3H2.91535Z" fill="#0D99DE"/>
<path d="M7.4108 3C14.9101 3 21 9.1331 21 16.6881H14.2064C10.4578 16.6881 7.41285 13.6205 7.41285 9.84403V3H7.4108Z" fill="#0D99DE"/>
<path d="M0 17.3099V28.0609C0 29.6838 1.30646 30.9979 2.91535 30.9979H6.79357V24.1539C6.79357 20.3754 3.75272 17.3099 0 17.3099Z" fill="#0D99DE"/>
<path d="M14.2044 17.3099H20.9979C20.9979 24.8648 14.9101 30.9979 7.4108 30.9979V24.1539C7.4108 20.3775 10.4558 17.3099 14.2044 17.3099Z" fill="#0D99DE"/>
</g>
<defs>
<clipPath id="clip0_2619_266">
<rect width="21" height="28" fill="white" transform="translate(0 3)"/>
</clipPath>
</defs>
</svg>
